<svg xmlns="http://www.w3.org/2000/svg" viewBox="0 0 1000 520" width="1000" height="520" role="img" aria-label="ktech — Cooperate always">
  <title>ktech — Cooperate always</title>
  <g id="wordmark" aria-label="ktech" transform="translate(21.244 333.994) scale(0.357 -0.357)">
    <path fill="#E2322A" transform="translate(0 0)" d="M135 0Q109 0 92.0 17.5Q75 35 75 61V679Q75 705 92.0 722.5Q109 740 135 740Q161 740 178.0 722.5Q195 705 195 679V61Q195 35 178.0 17.5Q161 0 135 0ZM453 535Q476 535 493.0 516.0Q510 497 510 479Q510 455 486 434L185 157L180 295L409 516Q428 535 453 535ZM468 1Q442 1 424 21L239 217L330 301L510 105Q529 85 529 60Q529 34 508.5 17.5Q488 1 468 1Z"/>
    <path fill="#2576BE" transform="translate(569 0)" d="M71 525H308Q332 525 348.0 509.0Q364 493 364 469Q364 446 348.0 430.5Q332 415 308 415H71Q47 415 31.0 431.0Q15 447 15 471Q15 494 31.0 509.5Q47 525 71 525ZM178 650Q204 650 220.5 632.5Q237 615 237 589V144Q237 130 242.5 121.0Q248 112 257.5 108.0Q267 104 278 104Q290 104 300.0 108.5Q310 113 323 113Q337 113 348.5 100.0Q360 87 360 64Q360 36 329.5 18.0Q299 0 264 0Q243 0 217.5 3.5Q192 7 169.5 20.5Q147 34 132.0 62.0Q117 90 117 139V589Q117 615 134.5 632.5Q152 650 178 650Z"/>
    <path fill="#F5C21B" transform="translate(978 0)" d="M317 -10Q232 -10 169.5 25.5Q107 61 73.5 122.0Q40 183 40 260Q40 350 76.5 413.5Q113 477 172.0 511.0Q231 545 297 545Q348 545 393.5 524.0Q439 503 474.0 466.5Q509 430 529.5 382.0Q550 334 550 280Q549 256 531.0 241.0Q513 226 489 226H107L77 326H444L422 306V333Q420 362 401.5 385.0Q383 408 355.5 421.5Q328 435 297 435Q267 435 241.0 427.0Q215 419 196.0 400.0Q177 381 166.0 349.0Q155 317 155 268Q155 214 177.5 176.5Q200 139 235.5 119.5Q271 100 311 100Q348 100 370.0 106.0Q392 112 405.5 120.5Q419 129 430 135Q448 144 464 144Q486 144 500.5 129.0Q515 114 515 94Q515 67 487 45Q461 23 414.0 6.5Q367 -10 317 -10Z"/>
    <path fill="#56B84B" transform="translate(1568 0)" d="M303 545Q360 545 402.5 533.0Q445 521 468.5 499.5Q492 478 492 448Q492 428 480.0 410.5Q468 393 445 393Q429 393 418.5 397.5Q408 402 400.0 409.0Q392 416 381 422Q371 428 350.5 431.5Q330 435 320 435Q269 435 233.5 413.0Q198 391 179.0 353.5Q160 316 160 267Q160 219 179.5 181.5Q199 144 233.5 122.0Q268 100 313 100Q338 100 356.0 103.0Q374 106 386 112Q400 120 411.0 129.0Q422 138 444 138Q470 138 484.0 121.5Q498 105 498 81Q498 56 470.0 35.5Q442 15 396.5 2.5Q351 -10 298 -10Q219 -10 161.0 26.5Q103 63 71.5 126.0Q40 189 40 267Q40 349 73.5 411.5Q107 474 166.5 509.5Q226 545 303 545Z"/>
    <path fill="#8A2C8F" transform="translate(2088 0)" d="M346 545Q418 545 455.5 514.0Q493 483 507.0 431.5Q521 380 521 317V61Q521 35 504.0 17.5Q487 0 461 0Q435 0 418.0 17.5Q401 35 401 61V317Q401 350 393.0 376.5Q385 403 364.0 419.0Q343 435 304 435Q266 435 239.0 419.0Q212 403 198.5 376.5Q185 350 185 317V61Q185 35 168.0 17.5Q151 0 125 0Q99 0 82.0 17.5Q65 35 65 61V679Q65 705 82.0 722.5Q99 740 125 740Q151 740 168.0 722.5Q185 705 185 679V431L170 434Q179 451 195.0 470.5Q211 490 234.0 507.0Q257 524 285.0 534.5Q313 545 346 545Z"/>
  </g>
  <g id="tagline" aria-label="Cooperate always" fill="#2576BE" transform="translate(43.805 449.519) scale(0.093 -0.093)">
    <path transform="translate(0 0)" d="M591.5 654Q608.5 644.5 611.25 626.75Q614 609 602 593.5Q593 581 579.0 579.75Q565 578.5 551 585.5Q518 605.5 480.0 617.0Q442 628.5 399.5 628.5Q340.5 628.5 291.5 608.25Q242.5 588 206.5 550.75Q170.5 513.5 150.75 462.5Q131 411.5 131 350Q131 284 151.75 232.0Q172.5 180 209.0 143.5Q245.5 107 294.25 88.0Q343 69 399.5 69Q441 69 479.0 80.0Q517 91 550.5 111.5Q564.5 119 578.75 117.0Q593 115 602.5 102.5Q615 86.5 611.75 69.25Q608.5 52 592.5 43.5Q567.5 28.5 535.5 16.25Q503.5 4 469.0 -3.0Q434.5 -10 399.5 -10Q327.5 -10 263.75 15.0Q200 40 150.75 86.75Q101.5 133.5 73.25 200.0Q45 266.5 45 350Q45 427.5 72.0 492.75Q99 558 147.25 606.0Q195.5 654 260.0 680.75Q324.5 707.5 399.5 707.5Q452 707.5 501.25 693.5Q550.5 679.5 591.5 654Z"/>
    <path transform="translate(645 0)" d="M564.5 259.5Q564.5 181.5 530.25 120.5Q496 59.5 437.5 24.75Q379 -10 305.5 -10Q232.5 -10 173.75 24.75Q115 59.5 80.5 120.5Q46 181.5 46 259.5Q46 338 80.5 399.0Q115 460 173.75 495.0Q232.5 530 305.5 530Q379 530 437.5 495.0Q496 460 530.25 399.0Q564.5 338 564.5 259.5ZM484.5 259.5Q484.5 317.5 461.0 361.5Q437.5 405.5 397.0 430.75Q356.5 456 305.5 456Q255 456 214.25 430.75Q173.5 405.5 149.75 361.5Q126 317.5 126 259.5Q126 202.5 149.75 158.5Q173.5 114.5 214.25 89.25Q255 64 305.5 64Q356.5 64 397.0 89.25Q437.5 114.5 461.0 158.5Q484.5 202.5 484.5 259.5Z"/>
    <path transform="translate(1256 0)" d="M564.5 259.5Q564.5 181.5 530.25 120.5Q496 59.5 437.5 24.75Q379 -10 305.5 -10Q232.5 -10 173.75 24.75Q115 59.5 80.5 120.5Q46 181.5 46 259.5Q46 338 80.5 399.0Q115 460 173.75 495.0Q232.5 530 305.5 530Q379 530 437.5 495.0Q496 460 530.25 399.0Q564.5 338 564.5 259.5ZM484.5 259.5Q484.5 317.5 461.0 361.5Q437.5 405.5 397.0 430.75Q356.5 456 305.5 456Q255 456 214.25 430.75Q173.5 405.5 149.75 361.5Q126 317.5 126 259.5Q126 202.5 149.75 158.5Q173.5 114.5 214.25 89.25Q255 64 305.5 64Q356.5 64 397.0 89.25Q437.5 114.5 461.0 158.5Q484.5 202.5 484.5 259.5Z"/>
    <path transform="translate(1867 0)" d="M328.5 525Q397 525 450.75 490.75Q504.5 456.5 536.0 396.75Q567.5 337 567.5 259Q567.5 181.5 536.0 121.25Q504.5 61 451.0 26.5Q397.5 -8 330.5 -8Q294 -8 261.25 3.25Q228.5 14.5 202.25 33.25Q176 52 158.0 75.25Q140 98.5 132 122L154 135.5V-159.5Q154 -176.5 142.75 -188.25Q131.5 -200 114 -200Q97 -200 85.5 -188.5Q74 -177 74 -159.5V479.5Q74 496.5 85.25 508.25Q96.5 520 114 520Q131.5 520 142.75 508.25Q154 496.5 154 479.5V391L139 399Q146 424 163.5 446.75Q181 469.5 206.5 487.25Q232 505 263.25 515.0Q294.5 525 328.5 525ZM320 451Q269.5 451 231.25 426.0Q193 401 171.25 358.0Q149.5 315 149.5 259Q149.5 204 171.25 160.0Q193 116 231.25 91.0Q269.5 66 320 66Q370 66 408.0 91.0Q446 116 468.0 160.0Q490 204 490 259Q490 314.5 468.0 357.75Q446 401 408.0 426.0Q370 451 320 451Z"/>
    <path transform="translate(2481 0)" d="M312.5 -10Q232.5 -10 172.5 23.75Q112.5 57.5 79.25 117.25Q46 177 46 255Q46 342 80.5 403.25Q115 464.5 170.25 497.25Q225.5 530 287.5 530Q334 530 376.75 512.75Q419.5 495.5 452.75 463.0Q486 430.5 506.0 385.25Q526 340 527 283.5Q526.5 267.5 514.5 256.75Q502.5 246 486.5 246H91.5L73.5 315H458.5L442.5 300.5V323Q439 364 415.5 393.5Q392 423 358.25 439.0Q324.5 455 287.5 455Q257.5 455 228.0 444.25Q198.5 433.5 175.0 410.25Q151.5 387 137.25 350.0Q123 313 123 260.5Q123 203 146.5 158.75Q170 114.5 212.0 89.25Q254 64 309.5 64Q345 64 371.0 72.75Q397 81.5 415.75 95.25Q434.5 109 447.5 123Q460.5 132 473 132Q487.5 132 497.25 121.75Q507 111.5 507 98Q507 81 491 67.5Q462.5 36.5 414.75 13.25Q367 -10 312.5 -10Z"/>
    <path transform="translate(3054 0)" d="M114 0Q96.5 0 85.25 11.75Q74 23.5 74 40.5V476.5Q74 493.5 85.5 505.25Q97 517 114 517Q131.5 517 142.75 505.25Q154 493.5 154 476.5V345L142 365.5Q147.5 397 163.0 426.25Q178.5 455.5 202.5 479.0Q226.5 502.5 257.75 516.25Q289 530 326 530Q348 530 366.25 519.5Q384.5 509 384.5 490Q384.5 469 373.5 458.75Q362.5 448.5 348.5 448.5Q336 448.5 324.0 454.25Q312 460 294 460Q269 460 244.25 446.25Q219.5 432.5 199.0 407.75Q178.5 383 166.25 351.25Q154 319.5 154 284V40.5Q154 23.5 142.5 11.75Q131 0 114 0Z"/>
    <path transform="translate(3455 0)" d="M499.5 522Q517 522 528.25 510.5Q539.5 499 539.5 481.5V40.5Q539.5 23.5 528.0 11.75Q516.5 0 499.5 0Q482 0 470.75 11.75Q459.5 23.5 459.5 40.5V136L478.5 138Q478.5 115.5 463.5 89.75Q448.5 64 422.5 41.5Q396.5 19 361.25 4.5Q326 -10 285 -10Q217 -10 162.75 25.25Q108.5 60.5 77.25 121.75Q46 183 46 261Q46 340 77.5 400.5Q109 461 162.75 495.5Q216.5 530 283 530Q326 530 363.0 515.75Q400 501.5 427.5 477.5Q455 453.5 470.25 424.5Q485.5 395.5 485.5 366.5L459.5 372.5V481.5Q459.5 498.5 470.75 510.25Q482 522 499.5 522ZM293.5 64Q343.5 64 382.0 89.75Q420.5 115.5 442.25 160.25Q464 205 464 261Q464 316 442.25 360.25Q420.5 404.5 382.0 430.25Q343.5 456 293.5 456Q244.5 456 206.0 430.75Q167.5 405.5 145.5 361.5Q123.5 317.5 123.5 261Q123.5 205 145.25 160.25Q167 115.5 205.5 89.75Q244 64 293.5 64Z"/>
    <path transform="translate(4069 0)" d="M54 514H288.5Q304.5 514 315.25 503.0Q326 492 326 476.5Q326 461 315.25 450.5Q304.5 440 288.5 440H54Q38.5 440 27.5 451.0Q16.5 462 16.5 477.5Q16.5 493 27.5 503.5Q38.5 514 54 514ZM158.5 650Q176 650 187.0 638.25Q198 626.5 198 609.5V126.5Q198 103 205.0 90.75Q212 78.5 223.25 74.25Q234.5 70 246 70Q255.5 70 263.0 73.25Q270.5 76.5 280.5 76.5Q291 76.5 299.25 67.25Q307.5 58 307.5 43Q307.5 24.5 286.5 12.25Q265.5 0 239.5 0Q226 0 205.5 2.0Q185 4 165.0 15.0Q145 26 131.5 51.25Q118 76.5 118 123V609.5Q118 626.5 129.75 638.25Q141.5 650 158.5 650Z"/>
    <path transform="translate(4432 0)" d="M312.5 -10Q232.5 -10 172.5 23.75Q112.5 57.5 79.25 117.25Q46 177 46 255Q46 342 80.5 403.25Q115 464.5 170.25 497.25Q225.5 530 287.5 530Q334 530 376.75 512.75Q419.5 495.5 452.75 463.0Q486 430.5 506.0 385.25Q526 340 527 283.5Q526.5 267.5 514.5 256.75Q502.5 246 486.5 246H91.5L73.5 315H458.5L442.5 300.5V323Q439 364 415.5 393.5Q392 423 358.25 439.0Q324.5 455 287.5 455Q257.5 455 228.0 444.25Q198.5 433.5 175.0 410.25Q151.5 387 137.25 350.0Q123 313 123 260.5Q123 203 146.5 158.75Q170 114.5 212.0 89.25Q254 64 309.5 64Q345 64 371.0 72.75Q397 81.5 415.75 95.25Q434.5 109 447.5 123Q460.5 132 473 132Q487.5 132 497.25 121.75Q507 111.5 507 98Q507 81 491 67.5Q462.5 36.5 414.75 13.25Q367 -10 312.5 -10Z"/>
    <path transform="translate(5005 0)" d=""/>
    <path transform="translate(5280 0)" d="M499.5 522Q517 522 528.25 510.5Q539.5 499 539.5 481.5V40.5Q539.5 23.5 528.0 11.75Q516.5 0 499.5 0Q482 0 470.75 11.75Q459.5 23.5 459.5 40.5V136L478.5 138Q478.5 115.5 463.5 89.75Q448.5 64 422.5 41.5Q396.5 19 361.25 4.5Q326 -10 285 -10Q217 -10 162.75 25.25Q108.5 60.5 77.25 121.75Q46 183 46 261Q46 340 77.5 400.5Q109 461 162.75 495.5Q216.5 530 283 530Q326 530 363.0 515.75Q400 501.5 427.5 477.5Q455 453.5 470.25 424.5Q485.5 395.5 485.5 366.5L459.5 372.5V481.5Q459.5 498.5 470.75 510.25Q482 522 499.5 522ZM293.5 64Q343.5 64 382.0 89.75Q420.5 115.5 442.25 160.25Q464 205 464 261Q464 316 442.25 360.25Q420.5 404.5 382.0 430.25Q343.5 456 293.5 456Q244.5 456 206.0 430.75Q167.5 405.5 145.5 361.5Q123.5 317.5 123.5 261Q123.5 205 145.25 160.25Q167 115.5 205.5 89.75Q244 64 293.5 64Z"/>
    <path transform="translate(5894 0)" d="M161.5 40.5Q161.5 23.5 149.75 11.75Q138 0 121 0Q104 0 92.75 11.75Q81.5 23.5 81.5 40.5V699.5Q81.5 716.5 93.25 728.25Q105 740 122 740Q139.5 740 150.5 728.25Q161.5 716.5 161.5 699.5Z"/>
    <path transform="translate(6137 0)" d="M684 526Q699.5 526 711.25 515.0Q723 504 723 485.5Q723 481.5 722.25 477.0Q721.5 472.5 720 469L566 25.5Q561 12.5 549.5 5.5Q538 -1.5 525 0Q502 1 490 25.5L363.5 341.5L384 338.5L269.5 25.5Q258.5 1 234.5 0Q222 -1.5 210.0 5.5Q198 12.5 193.5 25.5L37 469Q34 477.5 34 485.5Q34 502 45.0 514.0Q56 526 74.5 526Q87 526 97.0 519.75Q107 513.5 111 500.5L246 107L225 108L341.5 407.5Q352 432.5 378.5 432.5Q392.5 432.5 401.0 426.0Q409.5 419.5 414 407.5L536 107.5L511 105.5L646 500.5Q654.5 526 684 526Z"/>
    <path transform="translate(6894 0)" d="M499.5 522Q517 522 528.25 510.5Q539.5 499 539.5 481.5V40.5Q539.5 23.5 528.0 11.75Q516.5 0 499.5 0Q482 0 470.75 11.75Q459.5 23.5 459.5 40.5V136L478.5 138Q478.5 115.5 463.5 89.75Q448.5 64 422.5 41.5Q396.5 19 361.25 4.5Q326 -10 285 -10Q217 -10 162.75 25.25Q108.5 60.5 77.25 121.75Q46 183 46 261Q46 340 77.5 400.5Q109 461 162.75 495.5Q216.5 530 283 530Q326 530 363.0 515.75Q400 501.5 427.5 477.5Q455 453.5 470.25 424.5Q485.5 395.5 485.5 366.5L459.5 372.5V481.5Q459.5 498.5 470.75 510.25Q482 522 499.5 522ZM293.5 64Q343.5 64 382.0 89.75Q420.5 115.5 442.25 160.25Q464 205 464 261Q464 316 442.25 360.25Q420.5 404.5 382.0 430.25Q343.5 456 293.5 456Q244.5 456 206.0 430.75Q167.5 405.5 145.5 361.5Q123.5 317.5 123.5 261Q123.5 205 145.25 160.25Q167 115.5 205.5 89.75Q244 64 293.5 64Z"/>
    <path transform="translate(7508 0)" d="M460.5 525Q478 525 489.25 513.25Q500.5 501.5 500.5 484.5V49Q500.5 -35.5 467.75 -90.75Q435 -146 379.5 -173.0Q324 -200 254 -200Q215 -200 178.75 -192.0Q142.5 -184 119.5 -171Q101 -162 93.25 -148.75Q85.5 -135.5 91 -120.5Q97.5 -102 111.25 -95.25Q125 -88.5 139.5 -95Q156 -102.5 186.25 -114.75Q216.5 -127 255 -127Q307 -127 344.0 -107.25Q381 -87.5 401.0 -48.75Q421 -10 421 47V117.5L432.5 93Q417 61.5 390.0 38.5Q363 15.5 327.75 2.75Q292.5 -10 251 -10Q193.5 -10 154.0 14.5Q114.5 39 94.25 82.25Q74 125.5 74 182.5V484.5Q74 501.5 85.25 513.25Q96.5 525 114 525Q131.5 525 142.75 513.25Q154 501.5 154 484.5V200.5Q154 132.5 184.0 98.25Q214 64 277 64Q317 64 349.25 82.0Q381.5 100 401.0 131.25Q420.5 162.5 420.5 200.5V484.5Q420.5 501.5 431.75 513.25Q443 525 460.5 525Z"/>
    <path transform="translate(8083 0)" d="M44.5 81.5Q36 94.5 36.75 109.25Q37.5 124 53.5 134.5Q64 142 77.25 141.0Q90.5 140 102 128Q129.5 95 165.75 75.5Q202 56 253.5 56Q277.5 56.5 301.75 63.75Q326 71 342.5 88.25Q359 105.5 359 134.5Q359 162.5 342.0 179.25Q325 196 297.75 206.5Q270.5 217 239 225Q206 234 174.0 245.25Q142 256.5 116.5 274.0Q91 291.5 75.5 318.0Q60 344.5 60 383Q60 427.5 84.5 460.5Q109 493.5 150.25 511.75Q191.5 530 241 530Q268.5 530 299.0 523.25Q329.5 516.5 358.5 501.0Q387.5 485.5 409.5 459Q419 448.5 419.75 433.75Q420.5 419 406.5 407Q396 399 382.5 399.75Q369 400.5 360 409.5Q338.5 435 307.0 448.5Q275.5 462 237.5 462Q213.5 462 190.5 454.75Q167.5 447.5 152.0 431.0Q136.5 414.5 136.5 385.5Q137.5 358.5 154.75 341.75Q172 325 201.0 314.25Q230 303.5 265 294Q296.5 286 326.25 275.25Q356 264.5 379.75 247.5Q403.5 230.5 417.75 204.25Q432 178 432 138Q432 91.5 405.75 58.25Q379.5 25 337.25 7.5Q295 -10 246 -10Q190.5 -10 137.0 10.75Q83.5 31.5 44.5 81.5Z"/>
    <path transform="translate(8598.25 0)" d="M65 637Q52.5 637 43.75 646.5Q35 656 35 670.5Q35 685.5 43.75 692.75Q52.5 700 65 700H280Q292 700 301.0 692.75Q310 685.5 310 670.5Q310 656 302.75 646.5Q295.5 637 280 637ZM169 350Q155.5 350 146.5 358.75Q137.5 367.5 137.5 380V676H202V380Q202 367.5 193.25 358.75Q184.5 350 169 350ZM399 700Q412 700 420.75 696.0Q429.5 692 436.5 680.5L570.5 452H525.5L663 680.5Q672.5 695 684.0 698.0Q695.5 701 706 699.5Q720.5 698.5 728.5 691.25Q736.5 684 736.5 670V370Q736.5 357.5 726.0 348.75Q715.5 340 701.5 340Q686 340 676.25 348.75Q666.5 357.5 666.5 370V635H700.5L574.5 418Q571.5 412.5 564.5 408.75Q557.5 405 545.5 405Q535 405 528.5 409.0Q522 413 519.5 418L391.5 643H435.5V370Q433.5 357.5 425.0 348.75Q416.5 340 401.5 340Q386 340 376.75 348.75Q367.5 357.5 367.5 370V670Q367.5 683 376.5 691.5Q385.5 700 399 700Z"/>
  </g>
</svg>
